<svg width="32" height="32" viewBox="0 0 32 32" fill="none" xmlns="http://www.w3.org/2000/svg">
<g clip-path="url(#clip0_119_47)">
<path d="M15.504 0.131677C15.6551 0.045387 15.826 0 16 0C16.174 0 16.3449 0.045387 16.496 0.131677L23.996 4.41768C24.1491 4.5051 24.2763 4.63143 24.3648 4.78386C24.4533 4.9363 24.4999 5.10941 24.5 5.28568V13.2757L31.496 17.2757C31.6485 17.3628 31.7753 17.4885 31.8638 17.6401C31.9523 17.7918 31.9992 17.9641 32 18.1397V26.7117C31.9999 26.8879 31.9533 27.0611 31.8648 27.2135C31.7763 27.3659 31.6491 27.4923 31.496 27.5797L23.996 31.8657C23.8449 31.952 23.674 31.9974 23.5 31.9974C23.326 31.9974 23.1551 31.952 23.004 31.8657L16 27.8657L8.996 31.8677C8.84494 31.954 8.67397 31.9994 8.5 31.9994C8.32603 31.9994 8.15506 31.954 8.004 31.8677L0.504 27.5817C0.350946 27.4943 0.223719 27.3679 0.135211 27.2155C0.0467025 27.0631 5.68541e-05 26.8899 0 26.7137L0 18.1417C5.68541e-05 17.9654 0.0467025 17.7923 0.135211 17.6399C0.223719 17.4874 0.350946 17.3611 0.504 17.2737L7.5 13.2757V5.28568C7.50006 5.10941 7.5467 4.9363 7.63521 4.78386C7.72372 4.63143 7.85095 4.5051 8.004 4.41768L15.504 0.131677ZM8.5 15.0077L3.016 18.1417L8.5 21.2757L13.984 18.1417L8.5 15.0077ZM15 19.8657L9.5 23.0077V29.2757L15 26.1337V19.8657ZM17 26.1337L22.5 29.2757V23.0077L17 19.8657V26.1337ZM18.016 18.1417L23.5 21.2757L28.984 18.1417L23.5 15.0077L18.016 18.1417ZM22.5 13.2757V7.00768L17 10.1517V16.4197L22.5 13.2757ZM15 16.4197V10.1517L9.5 7.00768V13.2757L15 16.4197ZM10.516 5.28568L16 8.41968L21.484 5.28568L16 2.15168L10.516 5.28568ZM30 19.8657L24.5 23.0077V29.2757L30 26.1337V19.8657ZM7.5 29.2757V23.0077L2 19.8657V26.1337L7.5 29.2757Z" fill="white"/>
</g>
<defs>
<clipPath id="clip0_119_47">
<rect width="32" height="32" fill="white"/>
</clipPath>
</defs>
</svg>
