<svg width="25" height="25" viewBox="0 0 25 25" fill="none" xmlns="http://www.w3.org/2000/svg">
<g clip-path="url(#clip0_119_55)">
<path fill-rule="evenodd" clip-rule="evenodd" d="M9.375 19.5312C9.375 19.7385 9.45731 19.9372 9.60382 20.0837C9.75034 20.2302 9.94905 20.3125 10.1562 20.3125H22.6562C22.8635 20.3125 23.0622 20.2302 23.2087 20.0837C23.3552 19.9372 23.4375 19.7385 23.4375 19.5312V5.46875C23.4375 5.26155 23.3552 5.06284 23.2087 4.91632C23.0622 4.76981 22.8635 4.6875 22.6562 4.6875H10.1562C9.94905 4.6875 9.75034 4.76981 9.60382 4.91632C9.45731 5.06284 9.375 5.26155 9.375 5.46875V8.59375C9.375 8.80095 9.29269 8.99966 9.14618 9.14618C8.99966 9.29269 8.80095 9.375 8.59375 9.375C8.38655 9.375 8.18784 9.29269 8.04132 9.14618C7.89481 8.99966 7.8125 8.80095 7.8125 8.59375V5.46875C7.8125 4.84715 8.05943 4.25101 8.49897 3.81147C8.93851 3.37193 9.53465 3.125 10.1562 3.125H22.6562C23.2779 3.125 23.874 3.37193 24.3135 3.81147C24.7531 4.25101 25 4.84715 25 5.46875V19.5312C25 20.1529 24.7531 20.749 24.3135 21.1885C23.874 21.6281 23.2779 21.875 22.6562 21.875H10.1562C9.53465 21.875 8.93851 21.6281 8.49897 21.1885C8.05943 20.749 7.8125 20.1529 7.8125 19.5312V16.4062C7.8125 16.199 7.89481 16.0003 8.04132 15.8538C8.18784 15.7073 8.38655 15.625 8.59375 15.625C8.80095 15.625 8.99966 15.7073 9.14618 15.8538C9.29269 16.0003 9.375 16.199 9.375 16.4062V19.5312Z" fill="white"/>
<path fill-rule="evenodd" clip-rule="evenodd" d="M0.228118 13.0531C0.155363 12.9806 0.0976395 12.8944 0.0582544 12.7994C0.0188693 12.7045 -0.00140381 12.6028 -0.00140381 12.5C-0.00140381 12.3972 0.0188693 12.2955 0.0582544 12.2006C0.0976395 12.1057 0.155363 12.0195 0.228118 11.9469L4.91562 7.25939C4.98826 7.18675 5.07449 7.12913 5.16939 7.08982C5.2643 7.05051 5.36602 7.03027 5.46874 7.03027C5.57147 7.03027 5.67319 7.05051 5.76809 7.08982C5.863 7.12913 5.94923 7.18675 6.02187 7.25939C6.09451 7.33202 6.15212 7.41826 6.19144 7.51316C6.23075 7.60807 6.25098 7.70979 6.25098 7.81251C6.25098 7.91524 6.23075 8.01695 6.19144 8.11186C6.15212 8.20677 6.09451 8.293 6.02187 8.36564L2.66718 11.7188H16.4062C16.6134 11.7188 16.8122 11.8011 16.9587 11.9476C17.1052 12.0941 17.1875 12.2928 17.1875 12.5C17.1875 12.7072 17.1052 12.9059 16.9587 13.0524C16.8122 13.199 16.6134 13.2813 16.4062 13.2813H2.66718L6.02187 16.6344C6.09451 16.707 6.15212 16.7933 6.19144 16.8882C6.23075 16.9831 6.25098 17.0848 6.25098 17.1875C6.25098 17.2902 6.23075 17.392 6.19144 17.4869C6.15212 17.5818 6.09451 17.668 6.02187 17.7406C5.94923 17.8133 5.863 17.8709 5.76809 17.9102C5.67319 17.9495 5.57147 17.9697 5.46874 17.9697C5.36602 17.9697 5.2643 17.9495 5.16939 17.9102C5.07449 17.8709 4.98826 17.8133 4.91562 17.7406L0.228118 13.0531Z" fill="white"/>
</g>
<defs>
<clipPath id="clip0_119_55">
<rect width="25" height="25" fill="white"/>
</clipPath>
</defs>
</svg>
