<svg width="32" height="32" viewBox="0 0 32 32" fill="none" xmlns="http://www.w3.org/2000/svg">
<g clip-path="url(#clip0_119_49)">
<path d="M17.03 2.038C16.6873 2.0127 16.3437 2.00002 16 2V0C16.3931 0.000191655 16.786 0.0148683 17.178 0.044L17.03 2.038ZM21.038 2.938C20.3969 2.69061 19.7384 2.49074 19.068 2.34L19.506 0.388C20.272 0.56 21.026 0.788 21.758 1.072L21.038 2.938ZM23.778 4.358C23.4921 4.1673 23.1992 3.98718 22.9 3.818L23.886 2.078C24.5698 2.46547 25.2242 2.90265 25.844 3.386L24.614 4.964C24.3429 4.75246 24.064 4.55099 23.778 4.36V4.358ZM27.446 7.938C27.0504 7.37595 26.6139 6.84384 26.14 6.346L27.588 4.966C28.128 5.536 28.628 6.146 29.082 6.786L27.446 7.938ZM28.934 10.642C28.8027 10.3249 28.66 10.0127 28.506 9.706L30.292 8.806C30.6452 9.50817 30.946 10.2355 31.192 10.982L29.292 11.608C29.1845 11.2817 29.0651 10.9595 28.934 10.642ZM29.994 15.656C29.9778 14.9687 29.911 14.2835 29.794 13.606L31.764 13.266C31.898 14.038 31.976 14.822 31.996 15.606L29.996 15.656H29.994ZM29.732 18.732C29.798 18.392 29.852 18.054 29.894 17.712L31.88 17.958C31.7839 18.7383 31.6302 19.5104 31.42 20.268L29.492 19.734C29.584 19.404 29.664 19.07 29.732 18.732ZM27.828 23.49C28.196 22.91 28.52 22.302 28.8 21.674L30.628 22.484C30.308 23.204 29.938 23.896 29.518 24.56L27.828 23.49ZM25.9 25.9C26.144 25.656 26.378 25.404 26.6 25.144L28.116 26.45C27.8593 26.7477 27.5918 27.0359 27.314 27.314L25.9 25.9Z" fill="white"/>
<path d="M16 2C13.6978 2.00017 11.4311 2.56809 9.40078 3.65348C7.37044 4.73886 5.63911 6.3082 4.36014 8.2225C3.08116 10.1368 2.29401 12.337 2.06841 14.6281C1.84281 16.9193 2.18572 19.2307 3.06678 21.3577C3.94783 23.4847 5.33983 25.3616 7.11947 26.8221C8.89912 28.2826 11.0115 29.2817 13.2695 29.7309C15.5275 30.1801 17.8614 30.0655 20.0645 29.3973C22.2677 28.7291 24.272 27.5278 25.9 25.9L27.314 27.314C25.4535 29.1756 23.1625 30.5495 20.6441 31.314C18.1257 32.0785 15.4576 32.2101 12.8762 31.697C10.2947 31.1839 7.87974 30.042 5.84512 28.3725C3.8105 26.7029 2.21909 24.5573 1.21189 22.1258C0.204689 19.6942 -0.187205 17.0518 0.0709302 14.4325C0.329066 11.8133 1.22926 9.2982 2.69176 7.11004C4.15425 4.92187 6.13389 3.12822 8.45528 1.88801C10.7767 0.64779 13.3681 -0.000697464 16 5.62916e-07V2Z" fill="white"/>
<path d="M15 6C15.2652 6 15.5196 6.10536 15.7071 6.29289C15.8946 6.48043 16 6.73478 16 7V17.42L22.496 21.132C22.7196 21.2669 22.8815 21.4839 22.9473 21.7366C23.013 21.9893 22.9772 22.2577 22.8477 22.4844C22.7181 22.7111 22.5051 22.8782 22.254 22.9498C22.0029 23.0215 21.7337 22.9921 21.504 22.868L14.504 18.868C14.3509 18.7806 14.2237 18.6542 14.1352 18.5018C14.0467 18.3494 14.0001 18.1763 14 18V7C14 6.73478 14.1054 6.48043 14.2929 6.29289C14.4804 6.10536 14.7348 6 15 6Z" fill="white"/>
</g>
<defs>
<clipPath id="clip0_119_49">
<rect width="32" height="32" fill="white"/>
</clipPath>
</defs>
</svg>
