<svg width="32" height="32" viewBox="0 0 32 32" fill="none" xmlns="http://www.w3.org/2000/svg">
<path d="M13 29V21.99C13 21.5 13.5 21 14 21H18C18.5 21 19 21.5 19 22V29C19 29.2652 19.1054 29.5195 19.2929 29.7071C19.4804 29.8946 19.7348 30 20 30H28C28.2652 30 28.5196 29.8946 28.7071 29.7071C28.8946 29.5195 29 29.2652 29 29V15C29.0002 14.8685 28.9746 14.7384 28.9245 14.6169C28.8744 14.4954 28.8008 14.385 28.708 14.292L26 11.586V4.99996C26 4.73474 25.8946 4.48039 25.7071 4.29285C25.5196 4.10531 25.2652 3.99996 25 3.99996H23C22.7348 3.99996 22.4804 4.10531 22.2929 4.29285C22.1054 4.48039 22 4.73474 22 4.99996V7.58596L16.708 2.29196C16.6151 2.19883 16.5048 2.12494 16.3833 2.07453C16.2618 2.02412 16.1315 1.99817 16 1.99817C15.8685 1.99817 15.7382 2.02412 15.6167 2.07453C15.4952 2.12494 15.3849 2.19883 15.292 2.29196L3.292 14.292C3.1992 14.385 3.12564 14.4954 3.07554 14.6169C3.02543 14.7384 2.99977 14.8685 3 15V29C3 29.2652 3.10536 29.5195 3.29289 29.7071C3.48043 29.8946 3.73479 30 4 30H12C12.2652 30 12.5196 29.8946 12.7071 29.7071C12.8946 29.5195 13 29.2652 13 29Z" fill="white"/>
</svg>
