<svg width="14" height="12" viewBox="0 0 14 12" fill="none" xmlns="http://www.w3.org/2000/svg">
<g clip-path="url(#clip0_210_35)">
<path d="M2.86762 0.73497C2.64891 0.73497 2.43915 0.812404 2.2845 0.950238C2.12985 1.08807 2.04297 1.27501 2.04297 1.46994V2.20491C2.04297 2.39984 2.12985 2.58678 2.2845 2.72461C2.43915 2.86245 2.64891 2.93988 2.86762 2.93988H3.27994V9.55461C3.27994 9.94446 3.4537 10.3183 3.763 10.594C4.07231 10.8697 4.49181 11.0246 4.92923 11.0246H9.87711C10.3145 11.0246 10.734 10.8697 11.0433 10.594C11.3526 10.3183 11.5264 9.94446 11.5264 9.55461V2.93988H11.9387C12.1574 2.93988 12.3672 2.86245 12.5218 2.72461C12.6765 2.58678 12.7634 2.39984 12.7634 2.20491V1.46994C12.7634 1.27501 12.6765 1.08807 12.5218 0.950238C12.3672 0.812404 12.1574 0.73497 11.9387 0.73497H9.05246C9.05246 0.540044 8.96558 0.353101 8.81093 0.215268C8.65628 0.0774341 8.44653 0 8.22782 0L6.57852 0C6.35981 0 6.15006 0.0774341 5.99541 0.215268C5.84076 0.353101 5.75388 0.540044 5.75388 0.73497H2.86762ZM5.34155 3.67485C5.45091 3.67485 5.55578 3.71357 5.63311 3.78248C5.71044 3.8514 5.75388 3.94487 5.75388 4.04234V9.18713C5.75388 9.28459 5.71044 9.37806 5.63311 9.44698C5.55578 9.5159 5.45091 9.55461 5.34155 9.55461C5.2322 9.55461 5.12732 9.5159 5.05 9.44698C4.97267 9.37806 4.92923 9.28459 4.92923 9.18713V4.04234C4.92923 3.94487 4.97267 3.8514 5.05 3.78248C5.12732 3.71357 5.2322 3.67485 5.34155 3.67485ZM7.40317 3.67485C7.51252 3.67485 7.6174 3.71357 7.69473 3.78248C7.77205 3.8514 7.81549 3.94487 7.81549 4.04234V9.18713C7.81549 9.28459 7.77205 9.37806 7.69473 9.44698C7.6174 9.5159 7.51252 9.55461 7.40317 9.55461C7.29381 9.55461 7.18894 9.5159 7.11161 9.44698C7.03429 9.37806 6.99085 9.28459 6.99085 9.18713V4.04234C6.99085 3.94487 7.03429 3.8514 7.11161 3.78248C7.18894 3.71357 7.29381 3.67485 7.40317 3.67485ZM9.87711 4.04234V9.18713C9.87711 9.28459 9.83367 9.37806 9.75634 9.44698C9.67902 9.5159 9.57414 9.55461 9.46479 9.55461C9.35543 9.55461 9.25055 9.5159 9.17323 9.44698C9.0959 9.37806 9.05246 9.28459 9.05246 9.18713V4.04234C9.05246 3.94487 9.0959 3.8514 9.17323 3.78248C9.25055 3.71357 9.35543 3.67485 9.46479 3.67485C9.57414 3.67485 9.67902 3.71357 9.75634 3.78248C9.83367 3.8514 9.87711 3.94487 9.87711 4.04234Z" fill="white"/>
</g>
<defs>
<clipPath id="clip0_210_35">
<rect width="13.1943" height="11.7595" fill="white" transform="translate(0.805664)"/>
</clipPath>
</defs>
</svg>
