<svg width="13" height="12" viewBox="0 0 13 12" fill="none" xmlns="http://www.w3.org/2000/svg">
<g clip-path="url(#clip0_210_33)">
<path d="M10.4525 0.105251C10.3765 0.0376047 10.2736 -0.000396729 10.1662 -0.000396729C10.0589 -0.000396729 9.95591 0.0376047 9.87998 0.105251L8.54637 1.29384L11.548 3.96907L12.8816 2.7812C12.9193 2.74768 12.9492 2.70787 12.9697 2.66403C12.9901 2.62019 13.0006 2.57319 13.0006 2.52573C13.0006 2.47827 12.9901 2.43127 12.9697 2.38744C12.9492 2.3436 12.9193 2.30378 12.8816 2.27026L10.4525 0.105251ZM10.9755 4.47929L7.9739 1.80406L2.71069 6.49491H2.87831C2.98568 6.49491 3.08866 6.53293 3.16459 6.6006C3.24051 6.66827 3.28317 6.76005 3.28317 6.85575V7.21658H3.68803C3.79541 7.21658 3.89838 7.2546 3.97431 7.32227C4.05024 7.38994 4.09289 7.48172 4.09289 7.57742V7.93825H4.49775C4.60513 7.93825 4.70811 7.97627 4.78403 8.04394C4.85996 8.11161 4.90262 8.20339 4.90262 8.29909V8.65992H5.30748C5.41485 8.65992 5.51783 8.69794 5.59376 8.76561C5.66968 8.83328 5.71234 8.92506 5.71234 9.02076V9.17014L10.9755 4.47929ZM4.92853 9.86872C4.91149 9.82834 4.90271 9.78557 4.90262 9.74243V9.38159H4.49775C4.39038 9.38159 4.2874 9.34358 4.21147 9.27591C4.13555 9.20824 4.09289 9.11646 4.09289 9.02076V8.65992H3.68803C3.58065 8.65992 3.47768 8.62191 3.40175 8.55424C3.32582 8.48657 3.28317 8.39479 3.28317 8.29909V7.93825H2.87831C2.77093 7.93825 2.66795 7.90024 2.59203 7.83257C2.5161 7.7649 2.47345 7.67312 2.47345 7.57742V7.21658H2.06858C2.02018 7.21651 1.97218 7.20869 1.92688 7.19349L1.78194 7.32195C1.74336 7.35658 1.71306 7.39782 1.69287 7.44319L0.0734266 11.0515C0.0439764 11.1171 0.0367671 11.1889 0.0526922 11.2581C0.0686174 11.3273 0.106977 11.3908 0.163015 11.4408C0.219053 11.4907 0.290305 11.5249 0.367939 11.5391C0.445572 11.5533 0.526172 11.5469 0.599747 11.5206L4.64836 10.0773C4.69926 10.0593 4.74554 10.0323 4.7844 9.9979L4.92853 9.86872Z" fill="white"/>
</g>
<defs>
<clipPath id="clip0_210_33">
<rect width="12.9556" height="11.5467" fill="white" transform="translate(0.0444336)"/>
</clipPath>
</defs>
</svg>
