<svg width="37" height="37" viewBox="0 0 37 37" fill="none" xmlns="http://www.w3.org/2000/svg">
<g clip-path="url(#clip0_34_7)">
<rect width="37" height="37" rx="5.18" fill="white"/>
<path d="M6.31212 6.9475C6.57935 6.89611 6.8774 6.86014 7.20629 6.83958C7.53518 6.81903 7.81782 6.80875 8.05421 6.80875C8.33171 6.80875 8.62976 6.81903 8.94837 6.83958C9.26699 6.86014 9.56504 6.89611 9.84254 6.9475V28.0067C9.56504 28.0581 9.26699 28.094 8.94837 28.1146C8.62976 28.1351 8.33171 28.1454 8.05421 28.1454C7.81782 28.1454 7.53518 28.1351 7.20629 28.1146C6.8774 28.094 6.57935 28.0581 6.31212 28.0067V6.9475ZM21.6209 27.1125C21.3845 27.4619 21.0402 27.7343 20.588 27.9296C20.1357 28.1249 19.6887 28.2225 19.2467 28.2225C18.5684 28.2225 18.075 28.0426 17.7667 27.6829C17.4687 27.3232 17.2014 26.7939 16.965 26.095L15.3617 21.7167C14.9506 20.5758 14.4778 19.7793 13.9434 19.3271C13.4192 18.8646 12.71 18.6333 11.8159 18.6333C11.4767 18.6333 10.9885 18.6488 10.3513 18.6796C9.71407 18.7001 8.9381 18.7413 8.02337 18.8029V16.5213H13.4346C14.5138 16.5213 15.372 16.6754 16.0092 16.9838C16.6567 17.2818 17.1706 17.7238 17.5509 18.3096C17.9414 18.8851 18.2857 19.584 18.5838 20.4063L20.2025 24.7692C20.4595 25.4578 20.6856 25.9563 20.8809 26.2646C21.0864 26.5729 21.3331 26.8556 21.6209 27.1125ZM16.4409 8.22708C16.6978 7.76458 16.9599 7.41514 17.2271 7.17875C17.4943 6.94236 17.9157 6.82417 18.4913 6.82417C18.7893 6.82417 19.1131 6.83444 19.4625 6.855C19.8223 6.87555 20.1768 6.90125 20.5263 6.93208L20.7421 7.225L16.2096 15.0104C15.7368 15.8532 15.1407 16.5213 14.4213 17.0146C13.7018 17.4976 12.7923 17.7392 11.6925 17.7392H8.02337V15.7196C8.55782 15.6888 9.12824 15.6682 9.73462 15.6579C10.3513 15.6476 10.9114 15.6374 11.415 15.6271C11.7439 15.6271 11.9803 15.5654 12.1242 15.4421C12.2784 15.3085 12.448 15.0772 12.633 14.7483L16.4409 8.22708ZM22.2525 21.47V19.0188H29.5137V18.6179C29.5137 17.9396 29.4161 17.3178 29.2208 16.7525C29.0358 16.1769 28.7275 15.7196 28.2958 15.3804C27.8641 15.031 27.2989 14.8563 26.6 14.8563C25.5928 14.8563 24.8425 15.2828 24.3491 16.1358C23.8661 16.9786 23.6246 18.1503 23.6246 19.6508V20.6992C23.6246 21.6344 23.7171 22.4772 23.9021 23.2275C24.0973 23.9778 24.4416 24.5739 24.935 25.0158C25.4283 25.4475 26.1375 25.6633 27.0625 25.6633C27.8333 25.6633 28.5733 25.5554 29.2825 25.3396C29.9916 25.1135 30.6751 24.8411 31.3329 24.5225C31.6001 24.7897 31.8211 25.1289 31.9958 25.54C32.1808 25.9511 32.299 26.3314 32.3504 26.6808C31.6104 27.205 30.7265 27.6264 29.6987 27.945C28.6709 28.2636 27.6226 28.4229 26.5537 28.4229C25.3101 28.4229 24.2721 28.2071 23.4396 27.7754C22.6071 27.3335 21.9493 26.7374 21.4662 25.9871C20.9832 25.2265 20.6337 24.3683 20.4179 23.4125C20.2123 22.4567 20.1096 21.4597 20.1096 20.4217C20.1096 18.88 20.3459 17.5028 20.8187 16.29C21.3018 15.0772 22.0212 14.1163 22.9771 13.4071C23.9432 12.6979 25.1559 12.3433 26.6154 12.3433C27.9515 12.3433 29.0769 12.6363 29.9916 13.2221C30.9064 13.8079 31.6001 14.5993 32.0729 15.5963C32.5457 16.5829 32.7821 17.6929 32.7821 18.9263C32.7821 19.4504 32.7615 19.8975 32.7204 20.2675C32.6896 20.6272 32.6228 21.0281 32.52 21.47H22.2525Z" fill="url(#paint0_linear_34_7)"/>
</g>
<defs>
<linearGradient id="paint0_linear_34_7" x1="6.06337" y1="6.03914" x2="32.7381" y2="28.1321" gradientUnits="userSpaceOnUse">
<stop stop-color="#2443AE"/>
<stop offset="1" stop-color="#3156D7" stop-opacity="0.78"/>
</linearGradient>
<clipPath id="clip0_34_7">
<rect width="37" height="37" rx="5.18" fill="white"/>
</clipPath>
</defs>
</svg>
