<svg width="20" height="21" viewBox="0 0 20 21" fill="none" xmlns="http://www.w3.org/2000/svg">
<path d="M3.75 18C3.75 18 2.5 18 2.5 16.75C2.5 15.5 3.75 11.75 10 11.75C16.25 11.75 17.5 15.5 17.5 16.75C17.5 18 16.25 18 16.25 18H3.75ZM10 10.5C10.9946 10.5 11.9484 10.1049 12.6517 9.40165C13.3549 8.69839 13.75 7.74456 13.75 6.75C13.75 5.75544 13.3549 4.80161 12.6517 4.09835C11.9484 3.39509 10.9946 3 10 3C9.00544 3 8.05161 3.39509 7.34835 4.09835C6.64509 4.80161 6.25 5.75544 6.25 6.75C6.25 7.74456 6.64509 8.69839 7.34835 9.40165C8.05161 10.1049 9.00544 10.5 10 10.5Z" fill="#2443AE"/>
</svg>
