<svg width="25" height="25" viewBox="0 0 25 25" fill="none" xmlns="http://www.w3.org/2000/svg">
<rect width="25" height="25" fill="none"/>
<g id="search">
<g clip-path="url(#clip0_0_1)">
<path id="Vector" d="M18.3469 16.1625C19.8599 14.0979 20.5375 11.5383 20.2443 8.99555C19.951 6.45283 18.7085 4.11459 16.7653 2.44864C14.8221 0.78269 12.3215 -0.0881188 9.76387 0.010433C7.20619 0.108985 4.78004 1.16963 2.97079 2.98017C1.16155 4.79071 0.102639 7.21762 0.00591743 9.77537C-0.0908042 12.3331 0.781793 14.8331 2.44913 16.7751C4.11648 18.7171 6.4556 19.9579 8.99853 20.2494C11.5415 20.5408 14.1007 19.8613 16.1641 18.3469H16.1626C16.2094 18.4094 16.2594 18.4688 16.3157 18.5266L22.3313 24.5422C22.6243 24.8354 23.0217 25.0002 23.4362 25.0003C23.8507 25.0005 24.2483 24.836 24.5415 24.543C24.8347 24.25 24.9994 23.8525 24.9996 23.4381C24.9997 23.0236 24.8352 22.626 24.5422 22.3328L18.5266 16.3172C18.4708 16.2606 18.4107 16.21 18.3469 16.1625ZM18.7501 10.1563C18.7501 11.2848 18.5278 12.4023 18.0959 13.4449C17.664 14.4876 17.031 15.4349 16.233 16.2329C15.435 17.031 14.4876 17.664 13.445 18.0958C12.4024 18.5277 11.2849 18.75 10.1563 18.75C9.02776 18.75 7.91027 18.5277 6.86762 18.0958C5.82498 17.664 4.87761 17.031 4.07961 16.2329C3.28161 15.4349 2.6486 14.4876 2.21672 13.4449C1.78484 12.4023 1.56256 11.2848 1.56256 10.1563C1.56256 7.87705 2.46797 5.69119 4.07961 4.07955C5.69125 2.46791 7.87711 1.5625 10.1563 1.5625C12.4355 1.5625 14.6214 2.46791 16.233 4.07955C17.8446 5.69119 18.7501 7.87705 18.7501 10.1563Z" fill="#4463CD"/>
</g>
</g>
<defs>
<clipPath id="clip0_0_1">
<rect width="25" height="25" rx="8" fill="white"/>
</clipPath>
</defs>
</svg>
